<svg viewBox="0 0 960 330" xmlns="http://www.w3.org/2000/svg" role="img">
  <title>The 108-block layer map of Nemotron 3 Ultra</title>
  <desc>All 108 blocks in order: alternating Mamba-2 and MoE blocks, with 12 attention blocks spliced in at positions 7, 14, 23, 32, 39, 48, 57, 64, 73, 82, 89 and 98.</desc>
  <style>@import url('https://fonts.googleapis.com/css2?family=Inter:wght@400;500;600;700');text,tspan{font-family:'Inter',ui-sans-serif,system-ui,sans-serif}</style>
  <defs>
    <filter id="sgsoft" x="-30%" y="-30%" width="160%" height="170%"><feDropShadow dx="0" dy="1.2" stdDeviation="2.4" flood-color="#1f2937" flood-opacity="0.09"/></filter>
  </defs>
  <rect x="4" y="4" width="952" height="322" rx="16" fill="#FFFFFF" stroke="#E5E7EB" stroke-width="1.5"/>
  <text x="32" y="42" font-size="19" font-weight="700" fill="#111827">All 108 blocks, in order — <tspan fill="#3E9E7B">48 Mamba-2</tspan> · <tspan fill="#4B5563">48 MoE</tspan> · <tspan fill="#9E62D6">12 attention</tspan></text>
  <text x="32" y="63" font-size="12" fill="#6B7280">from config.layers_block_type — the rhythm is (Mamba-2 → MoE) pairs, with an attention block spliced in between a Mamba and its MoE, twelve times</text>
  <text x="32" y="100" font-size="11" fill="#6B7280">block index →</text>
  <text x="32" y="152" font-size="9.5" text-anchor="end" fill="#9CA3AF">0</text><text x="32" y="232" font-size="9.5" text-anchor="end" fill="#9CA3AF">54</text>
  <rect x="40.0" y="130" width="14.6" height="34" rx="3.5" fill="#A6E1CB" stroke="#3E9E7B" stroke-width="1"/><rect x="57.0" y="130" width="14.6" height="34" rx="3.5" fill="#EEF0F3" stroke="#B6BEC8" stroke-width="1"/><rect x="74.0" y="130" width="14.6" height="34" rx="3.5" fill="#A6E1CB" stroke="#3E9E7B" stroke-width="1"/><rect x="91.0" y="130" width="14.6" height="34" rx="3.5" fill="#EEF0F3" stroke="#B6BEC8" stroke-width="1"/><rect x="108.0" y="130" width="14.6" height="34" rx="3.5" fill="#A6E1CB" stroke="#3E9E7B" stroke-width="1"/><rect x="125.0" y="130" width="14.6" height="34" rx="3.5" fill="#EEF0F3" stroke="#B6BEC8" stroke-width="1"/><rect x="142.0" y="130" width="14.6" height="34" rx="3.5" fill="#A6E1CB" stroke="#3E9E7B" stroke-width="1"/><rect x="159.0" y="130" width="14.6" height="34" rx="3.5" fill="#E7D6FA" stroke="#9E62D6" stroke-width="1"/><text x="166.3" y="179" font-size="9" text-anchor="middle" fill="#56409A" font-weight="600">7</text><rect x="176.0" y="130" width="14.6" height="34" rx="3.5" fill="#EEF0F3" stroke="#B6BEC8" stroke-width="1"/><rect x="193.0" y="130" width="14.6" height="34" rx="3.5" fill="#A6E1CB" stroke="#3E9E7B" stroke-width="1"/><rect x="210.0" y="130" width="14.6" height="34" rx="3.5" fill="#EEF0F3" stroke="#B6BEC8" stroke-width="1"/><rect x="227.0" y="130" width="14.6" height="34" rx="3.5" fill="#A6E1CB" stroke="#3E9E7B" stroke-width="1"/><rect x="244.0" y="130" width="14.6" height="34" rx="3.5" fill="#EEF0F3" stroke="#B6BEC8" stroke-width="1"/><rect x="261.0" y="130" width="14.6" height="34" rx="3.5" fill="#A6E1CB" stroke="#3E9E7B" stroke-width="1"/><rect x="278.0" y="130" width="14.6" height="34" rx="3.5" fill="#E7D6FA" stroke="#9E62D6" stroke-width="1"/><text x="285.3" y="179" font-size="9" text-anchor="middle" fill="#56409A" font-weight="600">14</text><rect x="295.0" y="130" width="14.6" height="34" rx="3.5" fill="#EEF0F3" stroke="#B6BEC8" stroke-width="1"/><rect x="312.0" y="130" width="14.6" height="34" rx="3.5" fill="#A6E1CB" stroke="#3E9E7B" stroke-width="1"/><rect x="329.0" y="130" width="14.6" height="34" rx="3.5" fill="#EEF0F3" stroke="#B6BEC8" stroke-width="1"/><rect x="346.0" y="130" width="14.6" height="34" rx="3.5" fill="#A6E1CB" stroke="#3E9E7B" stroke-width="1"/><rect x="363.0" y="130" width="14.6" height="34" rx="3.5" fill="#EEF0F3" stroke="#B6BEC8" stroke-width="1"/><rect x="380.0" y="130" width="14.6" height="34" rx="3.5" fill="#A6E1CB" stroke="#3E9E7B" stroke-width="1"/><rect x="397.0" y="130" width="14.6" height="34" rx="3.5" fill="#EEF0F3" stroke="#B6BEC8" stroke-width="1"/><rect x="414.0" y="130" width="14.6" height="34" rx="3.5" fill="#A6E1CB" stroke="#3E9E7B" stroke-width="1"/><rect x="431.0" y="130" width="14.6" height="34" rx="3.5" fill="#E7D6FA" stroke="#9E62D6" stroke-width="1"/><text x="438.3" y="179" font-size="9" text-anchor="middle" fill="#56409A" font-weight="600">23</text><rect x="448.0" y="130" width="14.6" height="34" rx="3.5" fill="#EEF0F3" stroke="#B6BEC8" stroke-width="1"/><rect x="465.0" y="130" width="14.6" height="34" rx="3.5" fill="#A6E1CB" stroke="#3E9E7B" stroke-width="1"/><rect x="482.0" y="130" width="14.6" height="34" rx="3.5" fill="#EEF0F3" stroke="#B6BEC8" stroke-width="1"/><rect x="499.0" y="130" width="14.6" height="34" rx="3.5" fill="#A6E1CB" stroke="#3E9E7B" stroke-width="1"/><rect x="516.0" y="130" width="14.6" height="34" rx="3.5" fill="#EEF0F3" stroke="#B6BEC8" stroke-width="1"/><rect x="533.0" y="130" width="14.6" height="34" rx="3.5" fill="#A6E1CB" stroke="#3E9E7B" stroke-width="1"/><rect x="550.0" y="130" width="14.6" height="34" rx="3.5" fill="#EEF0F3" stroke="#B6BEC8" stroke-width="1"/><rect x="567.0" y="130" width="14.6" height="34" rx="3.5" fill="#A6E1CB" stroke="#3E9E7B" stroke-width="1"/><rect x="584.0" y="130" width="14.6" height="34" rx="3.5" fill="#E7D6FA" stroke="#9E62D6" stroke-width="1"/><text x="591.3" y="179" font-size="9" text-anchor="middle" fill="#56409A" font-weight="600">32</text><rect x="601.0" y="130" width="14.6" height="34" rx="3.5" fill="#EEF0F3" stroke="#B6BEC8" stroke-width="1"/><rect x="618.0" y="130" width="14.6" height="34" rx="3.5" fill="#A6E1CB" stroke="#3E9E7B" stroke-width="1"/><rect x="635.0" y="130" width="14.6" height="34" rx="3.5" fill="#EEF0F3" stroke="#B6BEC8" stroke-width="1"/><rect x="652.0" y="130" width="14.6" height="34" rx="3.5" fill="#A6E1CB" stroke="#3E9E7B" stroke-width="1"/><rect x="669.0" y="130" width="14.6" height="34" rx="3.5" fill="#EEF0F3" stroke="#B6BEC8" stroke-width="1"/><rect x="686.0" y="130" width="14.6" height="34" rx="3.5" fill="#A6E1CB" stroke="#3E9E7B" stroke-width="1"/><rect x="703.0" y="130" width="14.6" height="34" rx="3.5" fill="#E7D6FA" stroke="#9E62D6" stroke-width="1"/><text x="710.3" y="179" font-size="9" text-anchor="middle" fill="#56409A" font-weight="600">39</text><rect x="720.0" y="130" width="14.6" height="34" rx="3.5" fill="#EEF0F3" stroke="#B6BEC8" stroke-width="1"/><rect x="737.0" y="130" width="14.6" height="34" rx="3.5" fill="#A6E1CB" stroke="#3E9E7B" stroke-width="1"/><rect x="754.0" y="130" width="14.6" height="34" rx="3.5" fill="#EEF0F3" stroke="#B6BEC8" stroke-width="1"/><rect x="771.0" y="130" width="14.6" height="34" rx="3.5" fill="#A6E1CB" stroke="#3E9E7B" stroke-width="1"/><rect x="788.0" y="130" width="14.6" height="34" rx="3.5" fill="#EEF0F3" stroke="#B6BEC8" stroke-width="1"/><rect x="805.0" y="130" width="14.6" height="34" rx="3.5" fill="#A6E1CB" stroke="#3E9E7B" stroke-width="1"/><rect x="822.0" y="130" width="14.6" height="34" rx="3.5" fill="#EEF0F3" stroke="#B6BEC8" stroke-width="1"/><rect x="839.0" y="130" width="14.6" height="34" rx="3.5" fill="#A6E1CB" stroke="#3E9E7B" stroke-width="1"/><rect x="856.0" y="130" width="14.6" height="34" rx="3.5" fill="#E7D6FA" stroke="#9E62D6" stroke-width="1"/><text x="863.3" y="179" font-size="9" text-anchor="middle" fill="#56409A" font-weight="600">48</text><rect x="873.0" y="130" width="14.6" height="34" rx="3.5" fill="#EEF0F3" stroke="#B6BEC8" stroke-width="1"/><rect x="890.0" y="130" width="14.6" height="34" rx="3.5" fill="#A6E1CB" stroke="#3E9E7B" stroke-width="1"/><rect x="907.0" y="130" width="14.6" height="34" rx="3.5" fill="#EEF0F3" stroke="#B6BEC8" stroke-width="1"/><rect x="924.0" y="130" width="14.6" height="34" rx="3.5" fill="#A6E1CB" stroke="#3E9E7B" stroke-width="1"/><rect x="941.0" y="130" width="14.6" height="34" rx="3.5" fill="#EEF0F3" stroke="#B6BEC8" stroke-width="1"/><rect x="40.0" y="210" width="14.6" height="34" rx="3.5" fill="#A6E1CB" stroke="#3E9E7B" stroke-width="1"/><rect x="57.0" y="210" width="14.6" height="34" rx="3.5" fill="#EEF0F3" stroke="#B6BEC8" stroke-width="1"/><rect x="74.0" y="210" width="14.6" height="34" rx="3.5" fill="#A6E1CB" stroke="#3E9E7B" stroke-width="1"/><rect x="91.0" y="210" width="14.6" height="34" rx="3.5" fill="#E7D6FA" stroke="#9E62D6" stroke-width="1"/><text x="98.3" y="259" font-size="9" text-anchor="middle" fill="#56409A" font-weight="600">57</text><rect x="108.0" y="210" width="14.6" height="34" rx="3.5" fill="#EEF0F3" stroke="#B6BEC8" stroke-width="1"/><rect x="125.0" y="210" width="14.6" height="34" rx="3.5" fill="#A6E1CB" stroke="#3E9E7B" stroke-width="1"/><rect x="142.0" y="210" width="14.6" height="34" rx="3.5" fill="#EEF0F3" stroke="#B6BEC8" stroke-width="1"/><rect x="159.0" y="210" width="14.6" height="34" rx="3.5" fill="#A6E1CB" stroke="#3E9E7B" stroke-width="1"/><rect x="176.0" y="210" width="14.6" height="34" rx="3.5" fill="#EEF0F3" stroke="#B6BEC8" stroke-width="1"/><rect x="193.0" y="210" width="14.6" height="34" rx="3.5" fill="#A6E1CB" stroke="#3E9E7B" stroke-width="1"/><rect x="210.0" y="210" width="14.6" height="34" rx="3.5" fill="#E7D6FA" stroke="#9E62D6" stroke-width="1"/><text x="217.3" y="259" font-size="9" text-anchor="middle" fill="#56409A" font-weight="600">64</text><rect x="227.0" y="210" width="14.6" height="34" rx="3.5" fill="#EEF0F3" stroke="#B6BEC8" stroke-width="1"/><rect x="244.0" y="210" width="14.6" height="34" rx="3.5" fill="#A6E1CB" stroke="#3E9E7B" stroke-width="1"/><rect x="261.0" y="210" width="14.6" height="34" rx="3.5" fill="#EEF0F3" stroke="#B6BEC8" stroke-width="1"/><rect x="278.0" y="210" width="14.6" height="34" rx="3.5" fill="#A6E1CB" stroke="#3E9E7B" stroke-width="1"/><rect x="295.0" y="210" width="14.6" height="34" rx="3.5" fill="#EEF0F3" stroke="#B6BEC8" stroke-width="1"/><rect x="312.0" y="210" width="14.6" height="34" rx="3.5" fill="#A6E1CB" stroke="#3E9E7B" stroke-width="1"/><rect x="329.0" y="210" width="14.6" height="34" rx="3.5" fill="#EEF0F3" stroke="#B6BEC8" stroke-width="1"/><rect x="346.0" y="210" width="14.6" height="34" rx="3.5" fill="#A6E1CB" stroke="#3E9E7B" stroke-width="1"/><rect x="363.0" y="210" width="14.6" height="34" rx="3.5" fill="#E7D6FA" stroke="#9E62D6" stroke-width="1"/><text x="370.3" y="259" font-size="9" text-anchor="middle" fill="#56409A" font-weight="600">73</text><rect x="380.0" y="210" width="14.6" height="34" rx="3.5" fill="#EEF0F3" stroke="#B6BEC8" stroke-width="1"/><rect x="397.0" y="210" width="14.6" height="34" rx="3.5" fill="#A6E1CB" stroke="#3E9E7B" stroke-width="1"/><rect x="414.0" y="210" width="14.6" height="34" rx="3.5" fill="#EEF0F3" stroke="#B6BEC8" stroke-width="1"/><rect x="431.0" y="210" width="14.6" height="34" rx="3.5" fill="#A6E1CB" stroke="#3E9E7B" stroke-width="1"/><rect x="448.0" y="210" width="14.6" height="34" rx="3.5" fill="#EEF0F3" stroke="#B6BEC8" stroke-width="1"/><rect x="465.0" y="210" width="14.6" height="34" rx="3.5" fill="#A6E1CB" stroke="#3E9E7B" stroke-width="1"/><rect x="482.0" y="210" width="14.6" height="34" rx="3.5" fill="#EEF0F3" stroke="#B6BEC8" stroke-width="1"/><rect x="499.0" y="210" width="14.6" height="34" rx="3.5" fill="#A6E1CB" stroke="#3E9E7B" stroke-width="1"/><rect x="516.0" y="210" width="14.6" height="34" rx="3.5" fill="#E7D6FA" stroke="#9E62D6" stroke-width="1"/><text x="523.3" y="259" font-size="9" text-anchor="middle" fill="#56409A" font-weight="600">82</text><rect x="533.0" y="210" width="14.6" height="34" rx="3.5" fill="#EEF0F3" stroke="#B6BEC8" stroke-width="1"/><rect x="550.0" y="210" width="14.6" height="34" rx="3.5" fill="#A6E1CB" stroke="#3E9E7B" stroke-width="1"/><rect x="567.0" y="210" width="14.6" height="34" rx="3.5" fill="#EEF0F3" stroke="#B6BEC8" stroke-width="1"/><rect x="584.0" y="210" width="14.6" height="34" rx="3.5" fill="#A6E1CB" stroke="#3E9E7B" stroke-width="1"/><rect x="601.0" y="210" width="14.6" height="34" rx="3.5" fill="#EEF0F3" stroke="#B6BEC8" stroke-width="1"/><rect x="618.0" y="210" width="14.6" height="34" rx="3.5" fill="#A6E1CB" stroke="#3E9E7B" stroke-width="1"/><rect x="635.0" y="210" width="14.6" height="34" rx="3.5" fill="#E7D6FA" stroke="#9E62D6" stroke-width="1"/><text x="642.3" y="259" font-size="9" text-anchor="middle" fill="#56409A" font-weight="600">89</text><rect x="652.0" y="210" width="14.6" height="34" rx="3.5" fill="#EEF0F3" stroke="#B6BEC8" stroke-width="1"/><rect x="669.0" y="210" width="14.6" height="34" rx="3.5" fill="#A6E1CB" stroke="#3E9E7B" stroke-width="1"/><rect x="686.0" y="210" width="14.6" height="34" rx="3.5" fill="#EEF0F3" stroke="#B6BEC8" stroke-width="1"/><rect x="703.0" y="210" width="14.6" height="34" rx="3.5" fill="#A6E1CB" stroke="#3E9E7B" stroke-width="1"/><rect x="720.0" y="210" width="14.6" height="34" rx="3.5" fill="#EEF0F3" stroke="#B6BEC8" stroke-width="1"/><rect x="737.0" y="210" width="14.6" height="34" rx="3.5" fill="#A6E1CB" stroke="#3E9E7B" stroke-width="1"/><rect x="754.0" y="210" width="14.6" height="34" rx="3.5" fill="#EEF0F3" stroke="#B6BEC8" stroke-width="1"/><rect x="771.0" y="210" width="14.6" height="34" rx="3.5" fill="#A6E1CB" stroke="#3E9E7B" stroke-width="1"/><rect x="788.0" y="210" width="14.6" height="34" rx="3.5" fill="#E7D6FA" stroke="#9E62D6" stroke-width="1"/><text x="795.3" y="259" font-size="9" text-anchor="middle" fill="#56409A" font-weight="600">98</text><rect x="805.0" y="210" width="14.6" height="34" rx="3.5" fill="#EEF0F3" stroke="#B6BEC8" stroke-width="1"/><rect x="822.0" y="210" width="14.6" height="34" rx="3.5" fill="#A6E1CB" stroke="#3E9E7B" stroke-width="1"/><rect x="839.0" y="210" width="14.6" height="34" rx="3.5" fill="#EEF0F3" stroke="#B6BEC8" stroke-width="1"/><rect x="856.0" y="210" width="14.6" height="34" rx="3.5" fill="#A6E1CB" stroke="#3E9E7B" stroke-width="1"/><rect x="873.0" y="210" width="14.6" height="34" rx="3.5" fill="#EEF0F3" stroke="#B6BEC8" stroke-width="1"/><rect x="890.0" y="210" width="14.6" height="34" rx="3.5" fill="#A6E1CB" stroke="#3E9E7B" stroke-width="1"/><rect x="907.0" y="210" width="14.6" height="34" rx="3.5" fill="#EEF0F3" stroke="#B6BEC8" stroke-width="1"/><rect x="924.0" y="210" width="14.6" height="34" rx="3.5" fill="#A6E1CB" stroke="#3E9E7B" stroke-width="1"/><rect x="941.0" y="210" width="14.6" height="34" rx="3.5" fill="#EEF0F3" stroke="#B6BEC8" stroke-width="1"/>
  <!-- legend -->
  <g font-size="11.5">
    <rect x="40" y="288" width="20" height="16" rx="3.5" fill="#A6E1CB" stroke="#3E9E7B"/><text x="67" y="300" fill="#374151">Mamba-2 (sequence mix, constant state)</text>
    <rect x="330" y="288" width="20" height="16" rx="3.5" fill="#EEF0F3" stroke="#B6BEC8"/><text x="357" y="300" fill="#374151">LatentMoE (channel mix)</text>
    <rect x="540" y="288" width="20" height="16" rx="3.5" fill="#E7D6FA" stroke="#9E62D6"/><text x="567" y="300" fill="#374151">attention (global recall — 1 block in 9)</text>
  </g>
  <text x="928" y="316" font-size="10" font-style="italic" text-anchor="end" fill="#C0C5CD">source: NVIDIA-Nemotron-3-Ultra-550B-A55B config.json · layers_block_type</text>
</svg>
